<svg xmlns="http://www.w3.org/2000/svg" xmlns:osb="http://www.openswatchbook.org/uri/2009/osb" xmlns:svg="http://www.w3.org/2000/svg" xmlns:xlink="http://www.w3.org/1999/xlink" id="svg8" width="200" height="150" version="1.1" viewBox="0 0 52.917 39.688"><defs id="defs2"><linearGradient id="selected_bg_color" osb:paint="solid"><stop style="stop-color:#2e90b3;stop-opacity:1" id="stop5956" offset="0"/></linearGradient><linearGradient id="linearGradient2092" x1="10.5" x2="10.5" y1="1033.362" y2="1035.362" gradientTransform="rotate(45,1080.8927,414.45697)" gradientUnits="userSpaceOnUse" xlink:href="#selected_bg_color-3"/><linearGradient id="selected_bg_color-3" osb:paint="solid"><stop style="stop-color:#5294e2;stop-opacity:1" id="stop5956-6" offset="0"/></linearGradient><linearGradient id="linearGradient1228" x1="10.5" x2="10.5" y1="1033.362" y2="1035.362" gradientTransform="rotate(45,1080.8927,414.45697)" gradientUnits="userSpaceOnUse" xlink:href="#selected_bg_color-3"/></defs><metadata id="metadata5"/><g id="layer1" transform="translate(0,-257.31248)"><g id="thumbnail" transform="translate(0,-2.661734)"><rect id="rect1231" width="31.566" height="9.077" x="11.296" y="266.492" rx="0" ry="0" style="opacity:1;fill:#fff;fill-opacity:1;stroke:#f2f2f2;stroke-width:.18362547;stroke-miterlimit:4;stroke-dasharray:none;stroke-opacity:1"/><rect id="rect1295" width="16.183" height="6.08" x="12.91" y="267.99" rx="0" ry=".528" style="opacity:.15;fill:#fafafa;fill-opacity:1;stroke:gray;stroke-width:.26458332;stroke-miterlimit:4;stroke-dasharray:none;stroke-opacity:1"/><g id="g1309" aria-label="Button" transform="translate(-58.953119,7.4146773)" style="font-style:normal;font-variant:normal;font-weight:400;font-stretch:normal;font-size:3.40856862px;line-height:1.25;font-family:Purisa;-inkscape-font-specification:Purisa;letter-spacing:0;word-spacing:0;fill:#b3b3b3;fill-opacity:1;stroke:none;stroke-width:.08521421"><path id="path1297" d="m 74.699088,263.60556 v 0.91039 h 0.539246 q 0.271287,0 0.401106,-0.11151 0.131483,-0.11317 0.131483,-0.34451 0,-0.23301 -0.131483,-0.34286 -0.129819,-0.11151 -0.401106,-0.11151 z m 0,-1.0219 v 0.74895 h 0.497637 q 0.246323,0 0.366155,-0.0915 0.121497,-0.0932 0.121497,-0.28294 0,-0.18807 -0.121497,-0.28127 -0.119832,-0.0932 -0.366155,-0.0932 z m -0.336197,-0.27628 h 0.858799 q 0.384463,0 0.592505,0.15977 0.208043,0.15978 0.208043,0.45437 0,0.22801 -0.106518,0.36282 -0.106518,0.13481 -0.312896,0.1681 0.247987,0.0533 0.384463,0.22302 0.13814,0.1681 0.13814,0.42108 0,0.33287 -0.22635,0.51428 -0.22635,0.18142 -0.6441,0.18142 h -0.892086 z" style="font-style:normal;font-variant:normal;font-weight:400;font-stretch:normal;font-family:Samanata;-inkscape-font-specification:Samanata;fill:#b3b3b3;stroke-width:.08521421"/><path id="path1299" d="m 76.707946,264.0566 v -1.12843 h 0.306239 v 1.11678 q 0,0.26463 0.103189,0.39777 0.103189,0.13149 0.309567,0.13149 0.247987,0 0.39112,-0.15812 0.144798,-0.15811 0.144798,-0.43106 v -1.05686 h 0.306238 v 1.86407 h -0.306238 v -0.28627 q -0.111511,0.16976 -0.259637,0.25298 -0.146462,0.0815 -0.34119,0.0815 -0.321218,0 -0.487652,-0.19972 -0.166434,-0.19972 -0.166434,-0.58418 z" style="font-style:normal;font-variant:normal;font-weight:400;font-stretch:normal;font-family:Samanata;-inkscape-font-specification:Samanata;fill:#b3b3b3;stroke-width:.08521421"/><path id="path1301" d="m 79.0064,262.39891 v 0.52926 h 0.630785 v 0.238 H 79.0064 v 1.01192 q 0,0.22802 0.06158,0.29293 0.06324,0.0649 0.254644,0.0649 h 0.314561 v 0.25631 h -0.314561 q -0.354504,0 -0.489316,-0.13149 -0.134811,-0.13315 -0.134811,-0.48266 v -1.01192 h -0.224686 v -0.238 h 0.224686 v -0.52926 z" style="font-style:normal;font-variant:normal;font-weight:400;font-stretch:normal;font-family:Samanata;-inkscape-font-specification:Samanata;fill:#b3b3b3;stroke-width:.08521421"/><path id="path1303" d="m 80.690712,262.39891 v 0.52926 h 0.630785 v 0.238 h -0.630785 v 1.01192 q 0,0.22802 0.06158,0.29293 0.06325,0.0649 0.254644,0.0649 h 0.31456 v 0.25631 h -0.31456 q -0.354505,0 -0.489316,-0.13149 -0.134812,-0.13315 -0.134812,-0.48266 v -1.01192 h -0.224686 v -0.238 h 0.224686 v -0.52926 z" style="font-style:normal;font-variant:normal;font-weight:400;font-stretch:normal;font-family:Samanata;-inkscape-font-specification:Samanata;fill:#b3b3b3;stroke-width:.08521421"/><path id="path1305" d="m 82.794438,263.14287 q -0.246322,0 -0.389455,0.19307 -0.143134,0.1914 -0.143134,0.52593 0,0.33453 0.141469,0.52759 0.143134,0.1914 0.39112,0.1914 0.244658,0 0.387791,-0.19306 0.143134,-0.19306 0.143134,-0.52593 0,-0.3312 -0.143134,-0.52427 -0.143133,-0.19473 -0.387791,-0.19473 z m 0,-0.25963 q 0.399442,0 0.627456,0.25963 0.228015,0.25964 0.228015,0.719 0,0.45769 -0.228015,0.71899 -0.228014,0.25964 -0.627456,0.25964 -0.401106,0 -0.62912,-0.25964 -0.226351,-0.2613 -0.226351,-0.71899 0,-0.45936 0.226351,-0.719 0.228014,-0.25963 0.62912,-0.25963 z" style="font-style:normal;font-variant:normal;font-weight:400;font-stretch:normal;font-family:Samanata;-inkscape-font-specification:Samanata;fill:#b3b3b3;stroke-width:.08521421"/><path id="path1307" d="m 85.545593,263.66714 v 1.1251 h -0.306239 v -1.11511 q 0,-0.26463 -0.103189,-0.39612 -0.103189,-0.13148 -0.309567,-0.13148 -0.247987,0 -0.39112,0.15811 -0.143133,0.15812 -0.143133,0.43107 v 1.05353 h -0.307903 v -1.86407 h 0.307903 v 0.2896 q 0.109846,-0.1681 0.257972,-0.25132 0.149791,-0.0832 0.344519,-0.0832 0.321217,0 0.485987,0.19972 0.16477,0.19805 0.16477,0.58418 z" style="font-style:normal;font-variant:normal;font-weight:400;font-stretch:normal;font-family:Samanata;-inkscape-font-specification:Samanata;fill:#b3b3b3;stroke-width:.08521421"/></g><g id="checkbox-checked" transform="matrix(0.26458333,0,0,0.26458333,73.81875,314.63124)" style="display:inline"><rect id="rect2263" width="17" height="17" x="-161" y="-173.638" ry="0" style="opacity:0;fill:#000;fill-opacity:1;stroke:none;stroke-width:.56666666;stroke-linecap:round;stroke-linejoin:miter;stroke-miterlimit:4;stroke-dasharray:none;stroke-opacity:1;paint-order:stroke fill markers"/><path style="color:#000;display:inline;overflow:visible;visibility:visible;fill:#9d9d9d;fill-opacity:1;stroke:#000;stroke-width:0;stroke-linecap:butt;stroke-linejoin:round;stroke-miterlimit:4;stroke-dasharray:none;stroke-dashoffset:0;stroke-opacity:1;marker:none;enable-background:accumulate" id="rect2214" d="m -158,-172.63782 c -1.10801,0 -2,0.89199 -2,2 v 11 c 0,1.10801 0.89199,2 2,2 h 11 c 1.10801,0 2,-0.89199 2,-2 v -11 c 0,-1.10801 -0.89199,-2 -2,-2 z m 0,1 h 11 c 0.554,0 1,0.446 1,1 v 11 c 0,0.554 -0.446,1 -1,1 h -11 c -0.554,0 -1,-0.446 -1,-1 v -11 c 0,-0.554 0.446,-1 1,-1 z"/><g id="g2160" transform="translate(-31.560648,45.68198)"><path style="fill:url(#linearGradient2092);fill-opacity:1;stroke:none" id="rect1958" d="m -107.61133,91.318359 -4.94922,4.949219 -2.82812,-2.828125 -0.70703,0.707031 2.82812,2.828125 0.70703,0.707032 0.70703,-0.707032 4.94922,-4.949218 z" transform="translate(-9.4393514,-305.3198)"/></g></g><g id="radio-checked" transform="matrix(0.26458333,0,0,0.26458333,61.11875,314.63124)" style="display:inline"><rect style="opacity:0;fill:#000;fill-opacity:1;stroke:none;stroke-width:.56666666;stroke-linecap:round;stroke-linejoin:miter;stroke-miterlimit:4;stroke-dasharray:none;stroke-opacity:1;paint-order:stroke fill markers" id="rect2269" width="17" height="17" x="-91" y="-173.638" ry="0"/><rect id="rect2030" width="5" height="5" x="-85" y="-167.638" rx="2.499" ry="2.5" style="color:#000;display:inline;overflow:visible;visibility:visible;fill:#5294e2;fill-opacity:1;stroke:none;stroke-width:2.61048746;marker:none;enable-background:accumulate"/><path style="opacity:1;fill:#9d9d9d;fill-opacity:1;stroke:none;stroke-width:.88235295;stroke-linecap:round;stroke-linejoin:miter;stroke-miterlimit:4;stroke-dasharray:none;stroke-opacity:1;paint-order:stroke fill markers" id="path2234" d="m -82.5,-172.63782 a 7.5,7.5 0 0 0 -7.5,7.5 7.5,7.5 0 0 0 7.5,7.5 7.5,7.5 0 0 0 7.5,-7.5 7.5,7.5 0 0 0 -7.5,-7.5 z m 0,1 a 6.5000024,6.5000024 0 0 1 6.5,6.5 6.5000024,6.5000024 0 0 1 -6.5,6.5 6.5000024,6.5000024 0 0 1 -6.5,-6.5 6.5000024,6.5000024 0 0 1 6.5,-6.5 z"/></g></g><g id="thumbnail-dark" transform="translate(0,13.213261)"><rect style="opacity:1;fill:#32343d;fill-opacity:1;stroke:#646464;stroke-width:.18362547;stroke-miterlimit:4;stroke-dasharray:none;stroke-opacity:1" id="rect1190" width="31.566" height="9.077" x="11.296" y="266.492" rx="0" ry="0"/><rect style="opacity:1;fill:#3f4149;fill-opacity:1;stroke:#5c5c5c;stroke-width:.26458332;stroke-miterlimit:4;stroke-dasharray:none;stroke-opacity:1" id="rect1192" width="16.183" height="6.08" x="12.91" y="267.99" rx="0" ry=".528"/><g style="font-style:normal;font-variant:normal;font-weight:400;font-stretch:normal;font-size:3.40856862px;line-height:1.25;font-family:Purisa;-inkscape-font-specification:Purisa;letter-spacing:0;word-spacing:0;fill:#b3b3b3;fill-opacity:1;stroke:none;stroke-width:.08521421" id="g1206" aria-label="Button" transform="translate(-58.953119,7.4146773)"><path style="font-style:normal;font-variant:normal;font-weight:400;font-stretch:normal;font-family:Samanata;-inkscape-font-specification:Samanata;fill:#b3b3b3;stroke-width:.08521421" id="path1194" d="m 74.699088,263.60556 v 0.91039 h 0.539246 q 0.271287,0 0.401106,-0.11151 0.131483,-0.11317 0.131483,-0.34451 0,-0.23301 -0.131483,-0.34286 -0.129819,-0.11151 -0.401106,-0.11151 z m 0,-1.0219 v 0.74895 h 0.497637 q 0.246323,0 0.366155,-0.0915 0.121497,-0.0932 0.121497,-0.28294 0,-0.18807 -0.121497,-0.28127 -0.119832,-0.0932 -0.366155,-0.0932 z m -0.336197,-0.27628 h 0.858799 q 0.384463,0 0.592505,0.15977 0.208043,0.15978 0.208043,0.45437 0,0.22801 -0.106518,0.36282 -0.106518,0.13481 -0.312896,0.1681 0.247987,0.0533 0.384463,0.22302 0.13814,0.1681 0.13814,0.42108 0,0.33287 -0.22635,0.51428 -0.22635,0.18142 -0.6441,0.18142 h -0.892086 z"/><path style="font-style:normal;font-variant:normal;font-weight:400;font-stretch:normal;font-family:Samanata;-inkscape-font-specification:Samanata;fill:#b3b3b3;stroke-width:.08521421" id="path1196" d="m 76.707946,264.0566 v -1.12843 h 0.306239 v 1.11678 q 0,0.26463 0.103189,0.39777 0.103189,0.13149 0.309567,0.13149 0.247987,0 0.39112,-0.15812 0.144798,-0.15811 0.144798,-0.43106 v -1.05686 h 0.306238 v 1.86407 h -0.306238 v -0.28627 q -0.111511,0.16976 -0.259637,0.25298 -0.146462,0.0815 -0.34119,0.0815 -0.321218,0 -0.487652,-0.19972 -0.166434,-0.19972 -0.166434,-0.58418 z"/><path style="font-style:normal;font-variant:normal;font-weight:400;font-stretch:normal;font-family:Samanata;-inkscape-font-specification:Samanata;fill:#b3b3b3;stroke-width:.08521421" id="path1198" d="m 79.0064,262.39891 v 0.52926 h 0.630785 v 0.238 H 79.0064 v 1.01192 q 0,0.22802 0.06158,0.29293 0.06324,0.0649 0.254644,0.0649 h 0.314561 v 0.25631 h -0.314561 q -0.354504,0 -0.489316,-0.13149 -0.134811,-0.13315 -0.134811,-0.48266 v -1.01192 h -0.224686 v -0.238 h 0.224686 v -0.52926 z"/><path style="font-style:normal;font-variant:normal;font-weight:400;font-stretch:normal;font-family:Samanata;-inkscape-font-specification:Samanata;fill:#b3b3b3;stroke-width:.08521421" id="path1200" d="m 80.690712,262.39891 v 0.52926 h 0.630785 v 0.238 h -0.630785 v 1.01192 q 0,0.22802 0.06158,0.29293 0.06325,0.0649 0.254644,0.0649 h 0.31456 v 0.25631 h -0.31456 q -0.354505,0 -0.489316,-0.13149 -0.134812,-0.13315 -0.134812,-0.48266 v -1.01192 h -0.224686 v -0.238 h 0.224686 v -0.52926 z"/><path style="font-style:normal;font-variant:normal;font-weight:400;font-stretch:normal;font-family:Samanata;-inkscape-font-specification:Samanata;fill:#b3b3b3;stroke-width:.08521421" id="path1202" d="m 82.794438,263.14287 q -0.246322,0 -0.389455,0.19307 -0.143134,0.1914 -0.143134,0.52593 0,0.33453 0.141469,0.52759 0.143134,0.1914 0.39112,0.1914 0.244658,0 0.387791,-0.19306 0.143134,-0.19306 0.143134,-0.52593 0,-0.3312 -0.143134,-0.52427 -0.143133,-0.19473 -0.387791,-0.19473 z m 0,-0.25963 q 0.399442,0 0.627456,0.25963 0.228015,0.25964 0.228015,0.719 0,0.45769 -0.228015,0.71899 -0.228014,0.25964 -0.627456,0.25964 -0.401106,0 -0.62912,-0.25964 -0.226351,-0.2613 -0.226351,-0.71899 0,-0.45936 0.226351,-0.719 0.228014,-0.25963 0.62912,-0.25963 z"/><path style="font-style:normal;font-variant:normal;font-weight:400;font-stretch:normal;font-family:Samanata;-inkscape-font-specification:Samanata;fill:#b3b3b3;stroke-width:.08521421" id="path1204" d="m 85.545593,263.66714 v 1.1251 h -0.306239 v -1.11511 q 0,-0.26463 -0.103189,-0.39612 -0.103189,-0.13148 -0.309567,-0.13148 -0.247987,0 -0.39112,0.15811 -0.143133,0.15812 -0.143133,0.43107 v 1.05353 h -0.307903 v -1.86407 h 0.307903 v 0.2896 q 0.109846,-0.1681 0.257972,-0.25132 0.149791,-0.0832 0.344519,-0.0832 0.321217,0 0.485987,0.19972 0.16477,0.19805 0.16477,0.58418 z"/></g><g style="display:inline" id="g1216" transform="matrix(0.26458333,0,0,0.26458333,73.81875,314.63124)"><rect style="opacity:0;fill:#000;fill-opacity:1;stroke:none;stroke-width:.56666666;stroke-linecap:round;stroke-linejoin:miter;stroke-miterlimit:4;stroke-dasharray:none;stroke-opacity:1;paint-order:stroke fill markers" id="rect1208" width="17" height="17" x="-161" y="-173.638" ry="0"/><path id="path1210" d="m -158,-172.63782 c -1.10801,0 -2,0.89199 -2,2 v 11 c 0,1.10801 0.89199,2 2,2 h 11 c 1.10801,0 2,-0.89199 2,-2 v -11 c 0,-1.10801 -0.89199,-2 -2,-2 z m 0,1 h 11 c 0.554,0 1,0.446 1,1 v 11 c 0,0.554 -0.446,1 -1,1 h -11 c -0.554,0 -1,-0.446 -1,-1 v -11 c 0,-0.554 0.446,-1 1,-1 z" style="color:#000;display:inline;overflow:visible;visibility:visible;fill:gray;fill-opacity:1;stroke:#000;stroke-width:0;stroke-linecap:butt;stroke-linejoin:round;stroke-miterlimit:4;stroke-dasharray:none;stroke-dashoffset:0;stroke-opacity:1;marker:none;enable-background:accumulate"/><g id="g1214" transform="translate(-31.560648,45.68198)"><path id="path1212" d="m -107.61133,91.318359 -4.94922,4.949219 -2.82812,-2.828125 -0.70703,0.707031 2.82812,2.828125 0.70703,0.707032 0.70703,-0.707032 4.94922,-4.949218 z" transform="translate(-9.4393514,-305.3198)" style="fill:url(#linearGradient1228);fill-opacity:1;stroke:none"/></g></g><g style="display:inline" id="g1224" transform="matrix(0.26458333,0,0,0.26458333,61.11875,314.63124)"><rect id="rect1218" width="17" height="17" x="-91" y="-173.638" ry="0" style="opacity:0;fill:#000;fill-opacity:1;stroke:none;stroke-width:.56666666;stroke-linecap:round;stroke-linejoin:miter;stroke-miterlimit:4;stroke-dasharray:none;stroke-opacity:1;paint-order:stroke fill markers"/><rect style="color:#000;display:inline;overflow:visible;visibility:visible;fill:#5294e2;fill-opacity:1;stroke:none;stroke-width:2.61048746;marker:none;enable-background:accumulate" id="rect1220" width="5" height="5" x="-85" y="-167.638" rx="2.499" ry="2.5"/><path id="path1222" d="m -82.5,-172.63782 a 7.5,7.5 0 0 0 -7.5,7.5 7.5,7.5 0 0 0 7.5,7.5 7.5,7.5 0 0 0 7.5,-7.5 7.5,7.5 0 0 0 -7.5,-7.5 z m 0,1 a 6.5000024,6.5000024 0 0 1 6.5,6.5 6.5000024,6.5000024 0 0 1 -6.5,6.5 6.5000024,6.5000024 0 0 1 -6.5,-6.5 6.5000024,6.5000024 0 0 1 6.5,-6.5 z" style="opacity:1;fill:gray;fill-opacity:1;stroke:none;stroke-width:.88235295;stroke-linecap:round;stroke-linejoin:miter;stroke-miterlimit:4;stroke-dasharray:none;stroke-opacity:1;paint-order:stroke fill markers"/></g></g></g></svg>