<svg xmlns="http://www.w3.org/2000/svg" xmlns:svg="http://www.w3.org/2000/svg" xmlns:xlink="http://www.w3.org/1999/xlink" id="svg2" width="64" height="64" version="1.1" viewBox="0 0 64 64"><metadata id="metadata20"/><defs id="defs18"><linearGradient id="linearGradient3892"><stop style="stop-color:#000;stop-opacity:1" id="stop3894" offset="0"/><stop style="stop-color:#000;stop-opacity:0" id="stop3896" offset="1"/></linearGradient><linearGradient id="linearGradient3862" x1="22" x2="20" y1="15" y2="30" gradientUnits="userSpaceOnUse" xlink:href="#linearGradient3855"/><linearGradient id="linearGradient3839" x1="21" x2="20" y1="14" y2="26" gradientUnits="userSpaceOnUse" xlink:href="#linearGradient3833"/><linearGradient id="linearGradient3829" x1="21" x2="20" y1="14" y2="24" gradientUnits="userSpaceOnUse" xlink:href="#linearGradient3823"/><linearGradient id="linearGradient3954" x1="35" x2="44" y1="11" y2="5" gradientTransform="translate(22,1004.3622)" gradientUnits="userSpaceOnUse" xlink:href="#linearGradient3915"/><linearGradient id="linearGradient3933" x1="35" x2="38" y1="8" y2="5" gradientTransform="matrix(1.0436562,0,0,1.2222222,26.301501,1003.2511)" gradientUnits="userSpaceOnUse" xlink:href="#linearGradient3915"/><linearGradient id="linearGradient3921" x1="35" x2="38" y1="8" y2="5" gradientUnits="userSpaceOnUse" xlink:href="#linearGradient3915"/><linearGradient id="linearGradient3867" x1="1.995" x2="46.005" y1="28.563" y2="28.563" gradientUnits="userSpaceOnUse" xlink:href="#linearGradient3861"/><linearGradient id="linearGradient3858" x1="24" x2="24" y1="1046.362" y2="1014.362" gradientTransform="translate(0,-1004.3622)" gradientUnits="userSpaceOnUse" xlink:href="#linearGradient3810"/><linearGradient id="linearGradient3856" x1="24" x2="24" y1="1046.362" y2="1014.362" gradientTransform="translate(0,-3)" gradientUnits="userSpaceOnUse" xlink:href="#linearGradient3810"/><linearGradient id="linearGradient3816" x1="24" x2="24" y1="1046.362" y2="1014.362" gradientUnits="userSpaceOnUse" xlink:href="#linearGradient3810"/><linearGradient id="linearGradient3810"><stop id="stop3812" offset="0" style="stop-color:#f2c66f;stop-opacity:1"/><stop id="stop3814" offset="1" style="stop-color:#fbd68f;stop-opacity:1"/></linearGradient><linearGradient id="linearGradient3844"><stop id="stop3846" offset="0" style="stop-color:#000;stop-opacity:.39215687"/><stop id="stop3848" offset="1" style="stop-color:#000;stop-opacity:0"/></linearGradient><linearGradient id="linearGradient3861"><stop id="stop3863" offset="0" style="stop-color:#000;stop-opacity:1"/><stop id="stop3865" offset="1" style="stop-color:#000;stop-opacity:0"/></linearGradient><linearGradient id="linearGradient3915"><stop id="stop3917" offset="0" style="stop-color:#f8f4e1;stop-opacity:1"/><stop id="stop3919" offset="1" style="stop-color:#ad9e57;stop-opacity:1"/></linearGradient><linearGradient id="linearGradient3956"><stop id="stop3958" offset="0" style="stop-color:#f8f4e1;stop-opacity:1"/><stop id="stop3960" offset="1" style="stop-color:#eae5c8;stop-opacity:1"/></linearGradient><linearGradient id="linearGradient3823"><stop id="stop3825" offset="0" style="stop-color:#49b7ef;stop-opacity:1"/><stop id="stop3827" offset="1" style="stop-color:#1d8de2;stop-opacity:1"/></linearGradient><linearGradient id="linearGradient3833"><stop style="stop-color:#fdfeff;stop-opacity:1" id="stop3835" offset="0"/><stop style="stop-color:#dfe4e4;stop-opacity:1" id="stop3837" offset="1"/></linearGradient><linearGradient id="linearGradient3855"><stop id="stop3857" offset="0" style="stop-color:#000;stop-opacity:1"/><stop id="stop3859" offset="1" style="stop-color:#000;stop-opacity:.29411766"/></linearGradient><radialGradient id="radialGradient3898" cx="33" cy="59" r="27" fx="33" fy="59" gradientTransform="matrix(1,0,0,0.18518519,0,48.074074)" gradientUnits="userSpaceOnUse" xlink:href="#linearGradient3892"/></defs><path style="opacity:.6;fill:url(#radialGradient3898);fill-opacity:1;stroke:none" id="path3114" d="M 60,59 A 27,5 0 1 1 6,59 27,5 0 1 1 60,59 z" transform="translate(-1,1)"/><path id="path3801" d="m 33.529412,14.972932 -7.647059,4.864868 4.588236,0 z" style="fill:none;stroke:none"/><rect id="rect3054" width="40" height="49" x="12" y="13" rx="1.5" ry="1.5" style="fill:#f07a64;fill-opacity:1;stroke:none"/><path style="fill:#f07a64;fill-opacity:1;stroke:none" id="path3861" d="M 24,2 C 22.470588,2 21,3.6215756 21,5.243198 L 21,14 l 0.294118,2.972932 3.058824,0 L 26,13.729688 26,8.4864428 C 26,6.8648204 27.411765,5 28.941177,5 l 6.117647,0 C 36.588236,5 38,6.8648204 38,8.4864428 l 0,5.2432452 0,3.243244 4.705883,0 L 43,14 43,5 C 43,3.3783776 41.529411,2 40,2 z"/><path id="path3824" d="m 6,20 c 0,-3.2 3.0588236,-8 4.588235,-8 l 42.823531,0 c 1.529412,0 4.588235,4.8 4.588235,8 z" style="fill:#ff8e78;fill-opacity:1;stroke:none"/><rect id="rect3826" width="6" height="32" x="18" y="25" rx="1.5" ry="1.5" style="fill:#b64f46;fill-opacity:1;stroke:none"/><rect style="fill:#b64f46;fill-opacity:1;stroke:none" id="rect3110" width="6" height="32" x="29" y="25" rx="1.5" ry="1.5"/><rect id="rect3112" width="6" height="32" x="40" y="25" rx="1.5" ry="1.5" style="fill:#b64f46;fill-opacity:1;stroke:none"/><rect id="rect3863" width="40" height="8" x="12" y="20" style="opacity:.1;fill:#000;fill-opacity:1;stroke:none"/></svg>