<?xml version="1.0" encoding="UTF-8" standalone="no"?>
<svg
   viewBox="0 0 20.008678 20.010565"
   version="1.1"
   id="svg459"
   sodipodi:docname="calendar-arrow-left-hover.svg"
   width="20.008678"
   height="20.010565"
   inkscape:version="1.2.2 (b0a8486541, 2022-12-01)"
   xmlns:inkscape="http://www.inkscape.org/namespaces/inkscape"
   xmlns:sodipodi="http://sodipodi.sourceforge.net/DTD/sodipodi-0.dtd"
   xmlns:xlink="http://www.w3.org/1999/xlink"
   xmlns="http://www.w3.org/2000/svg"
   xmlns:svg="http://www.w3.org/2000/svg">
  <defs
     id="defs463">
    <linearGradient
       inkscape:collect="always"
       id="linearGradient1316">
      <stop
         style="stop-color:#3e3e3e;stop-opacity:1;"
         offset="0"
         id="stop1312" />
      <stop
         style="stop-color:#212121;stop-opacity:1;"
         offset="0.5"
         id="stop1320" />
      <stop
         style="stop-color:#2b2b2b;stop-opacity:1;"
         offset="0.75"
         id="stop1322" />
      <stop
         style="stop-color:#222222;stop-opacity:1"
         offset="1"
         id="stop1314" />
    </linearGradient>
    <linearGradient
       inkscape:collect="always"
       xlink:href="#linearGradient1316"
       id="linearGradient1318"
       x1="-0.088790596"
       y1="19.557453"
       x2="18.576056"
       y2="0.79608101"
       gradientUnits="userSpaceOnUse" />
  </defs>
  <sodipodi:namedview
     id="namedview461"
     pagecolor="#ffffff"
     bordercolor="#000000"
     borderopacity="0.25"
     inkscape:showpageshadow="2"
     inkscape:pageopacity="0.0"
     inkscape:pagecheckerboard="0"
     inkscape:deskcolor="#d1d1d1"
     showgrid="false"
     inkscape:zoom="9.5625"
     inkscape:cx="10.248366"
     inkscape:cy="29.856209"
     inkscape:window-width="847"
     inkscape:window-height="865"
     inkscape:window-x="804"
     inkscape:window-y="8"
     inkscape:window-maximized="0"
     inkscape:current-layer="svg459" />
  <rect
     width="19.008854"
     height="19.01074"
     x="0.49991199"
     y="0.49991199"
     fill="#181818"
     stroke="#0c0c0c"
     stroke-linejoin="round"
     stroke-width="0.999824"
     color="#202020"
     rx="2.8384669"
     ry="2.8841498"
     id="rect2"
     style="fill-opacity:1;fill:url(#linearGradient1318);stroke:#444444;stroke-opacity:1" />
  <path
     fill="#e9e9e9"
     d="m 12.323789,4.2116521 a 1.1432952,0.94359686 0 0 0 -0.176939,0.012771 1.1432952,0.94359686 0 0 0 -0.678831,0.2653423 l -5.7130754,4.7179838 -0.786015,0.6782546 0.786015,0.6782552 5.7130754,4.716565 a 1.1620099,0.95920523 0 0 0 1.187529,0.232706 0.56654363,0.4725079 0 0 0 0.777509,-0.439872 c 0,-0.05818 -0.01531,-0.114934 -0.04083,-0.168854 a 1.1620099,0.95920523 0 0 0 -0.28072,-0.979071 L 8.2184726,9.8860038 13.111505,5.8462741 a 1.1432952,0.94359686 0 0 0 0.289227,-1.0230577 c 0.01531,-0.042568 0.03403,-0.082299 0.03403,-0.1277048 a 0.56824496,0.47392684 0 0 0 -0.7622,-0.4398722 1.1432952,0.94359686 0 0 0 -0.348773,-0.043987 z"
     color="#0c0c0c"
     style="text-indent:0;text-decoration-line:none;text-transform:none;stroke-width:1.55374"
     id="path457" />
</svg>
