<?xml version="1.0" encoding="UTF-8" standalone="no"?>
<svg
   viewBox="0 0 20.001738 20.017551"
   version="1.1"
   id="svg4080"
   sodipodi:docname="close.svg"
   width="20.001738"
   height="20.017551"
   inkscape:version="1.2.2 (b0a8486541, 2022-12-01)"
   xmlns:inkscape="http://www.inkscape.org/namespaces/inkscape"
   xmlns:sodipodi="http://sodipodi.sourceforge.net/DTD/sodipodi-0.dtd"
   xmlns="http://www.w3.org/2000/svg"
   xmlns:svg="http://www.w3.org/2000/svg">
  <defs
     id="defs4084" />
  <sodipodi:namedview
     id="namedview4082"
     pagecolor="#ffffff"
     bordercolor="#000000"
     borderopacity="0.25"
     inkscape:showpageshadow="2"
     inkscape:pageopacity="0.0"
     inkscape:pagecheckerboard="0"
     inkscape:deskcolor="#d1d1d1"
     showgrid="false"
     inkscape:zoom="13.909091"
     inkscape:cx="2.7320261"
     inkscape:cy="9.5261438"
     inkscape:window-width="1600"
     inkscape:window-height="881"
     inkscape:window-x="0"
     inkscape:window-y="0"
     inkscape:window-maximized="1"
     inkscape:current-layer="svg4080" />
  <rect
     width="19.008854"
     height="19.01074"
     x="0.49644232"
     y="0.50340575"
     fill="#181818"
     stroke="#0c0c0c"
     stroke-linejoin="round"
     stroke-width="0.999824"
     color="#202020"
     rx="2.8384669"
     ry="2.8841498"
     id="rect4076" />
  <g
     id="X"
     transform="matrix(0.17906924,0,0,0.1633984,-0.48252324,0.28525072)">
    <path
       fill="#1b1d24 #f4f4f7"
       d="m 85.3675,75.8675 -44.1,-44.1 c -2.6,-2.6 -6.9,-2.6 -9.6,0 -2.6,2.6 -2.6,6.9 0,9.6 l 44.1,44.1 c 2.6,2.6 6.9,2.6 9.6,0 2.7,-2.7 2.7,-7 0,-9.6 z"
       id="path4"
       style="fill:#e9e9e9;fill-opacity:1" />
    <path
       fill="#1b1d24 #f4f4f7"
       d="m 41.2675,85.3675 44.1,-44.1 c 2.6,-2.6 2.6,-6.9 0,-9.6 -2.6,-2.6 -6.9,-2.6 -9.6,0 l -44,44.2 c -2.6,2.6 -2.6,6.9 0,9.6 2.6,2.6 6.9,2.6 9.5,-0.1 z"
       id="path6"
       style="fill:#e9e9e9;fill-opacity:1" />
  </g>
  <path
     fill="none"
     d="M -0.20250319,-1.7718212 H 21.741497 V 20.172179 H -0.20250319 Z"
     color="#202020"
     id="path4078" />
</svg>
