<svg viewBox="0 0 46 22">
  <path fill="#555" d="M34.615.035c6.05 0 10.955 4.713 10.955 10.572v.766c0 5.859-4.904 10.572-10.955 10.572H11.08C5.03 21.945.125 17.23.125 11.373v-.766C.125 4.748 5.03.035 11.08.035z" color="#000" style="font-feature-settings:normal;font-variant-alternates:normal;font-variant-caps:normal;font-variant-ligatures:normal;font-variant-numeric:normal;font-variant-position:normal;isolation:auto;mix-blend-mode:normal;shape-padding:0;text-decoration-color:#000;text-decoration-line:none;text-decoration-style:solid;text-indent:0;text-orientation:mixed;text-transform:none;white-space:normal"/>
  <path d="M11.08.035C5.03.035.125 4.748.125 10.607v.766c0 5.858 4.904 10.572 10.955 10.572h23.535c6.05 0 10.955-4.714 10.955-10.572v-.766C45.57 4.748 40.666.035 34.615.035H11.08zm1.084 1.442h21.883c5.626 0 10.188 4.112 10.188 9.224v.668c0 5.112-4.562 9.225-10.188 9.225H12.164c-5.626 0-10.186-4.113-10.186-9.225v-.668c0-5.112 4.56-9.224 10.186-9.224z" opacity=".2" style="font-feature-settings:normal;font-variant-alternates:normal;font-variant-caps:normal;font-variant-ligatures:normal;font-variant-numeric:normal;font-variant-position:normal;isolation:auto;mix-blend-mode:normal;shape-padding:0;text-decoration-color:#000;text-decoration-line:none;text-decoration-style:solid;text-indent:0;text-orientation:mixed;text-transform:none;white-space:normal"/>
  <rect width="19.233" height="19.022" x="-44.197" y="1.479" fill="#fff" rx="9.511" ry="9.511" transform="scale(-1 1)"/>
</svg>
