<?xml version="1.0" encoding="UTF-8" standalone="no"?>
<svg
   width="20.008678"
   height="20.010565"
   fill="#f4f4f7"
   fill-opacity="context-fill-opacity"
   version="1.1"
   id="svg306"
   sodipodi:docname="trash-icon.svg"
   inkscape:version="1.2.2 (b0a8486541, 2022-12-01)"
   xmlns:inkscape="http://www.inkscape.org/namespaces/inkscape"
   xmlns:sodipodi="http://sodipodi.sourceforge.net/DTD/sodipodi-0.dtd"
   xmlns="http://www.w3.org/2000/svg"
   xmlns:svg="http://www.w3.org/2000/svg">
  <defs
     id="defs310" />
  <sodipodi:namedview
     id="namedview308"
     pagecolor="#ffffff"
     bordercolor="#000000"
     borderopacity="0.25"
     inkscape:showpageshadow="2"
     inkscape:pageopacity="0.0"
     inkscape:pagecheckerboard="0"
     inkscape:deskcolor="#d1d1d1"
     showgrid="false"
     inkscape:zoom="9.5625"
     inkscape:cx="12.444444"
     inkscape:cy="6.4313725"
     inkscape:window-width="796"
     inkscape:window-height="865"
     inkscape:window-x="804"
     inkscape:window-y="8"
     inkscape:window-maximized="0"
     inkscape:current-layer="svg306" />
  <rect
     width="19.008854"
     height="19.01074"
     x="0.49991199"
     y="0.49991199"
     fill="#181818"
     stroke="#0c0c0c"
     stroke-linejoin="round"
     stroke-width="0.999824"
     color="#202020"
     rx="2.8384669"
     ry="2.8841498"
     id="rect2" />
  <g
     id="trashcan"
     transform="translate(-1.8306909,-0.19630183)">
    <path
       d="m 9.6808095,14.005282 a 0.5,0.5 0 0 0 0.4999995,-0.5 v -6 a 0.5,0.5 0 0 0 -0.9999995,0 v 6 a 0.5,0.5 0 0 0 0.5,0.5 z m 1.9999995,0 a 0.5,0.5 0 0 0 0.5,-0.5 v -6 a 0.5,0.5 0 0 0 -1,0 v 6 a 0.5,0.5 0 0 0 0.5,0.5 z m 2,0 a 0.5,0.5 0 0 0 0.5,-0.5 v -6 a 0.5,0.5 0 0 0 -1,0 v 6 a 0.5,0.5 0 0 0 0.5,0.5 z"
       id="path302" />
    <path
       d="m 17.180809,4.005282 h -3.05 a 2.5,2.5 0 0 0 -4.8999995,0 h -3.05 a 1,1 0 0 0 0,2 v 9 a 3,3 0 0 0 3,3 h 4.9999995 a 3,3 0 0 0 3,-3 v -9 a 1,1 0 0 0 0,-2 z m -5.5,-1 a 1.489,1.489 0 0 1 1.391,1 h -2.782 a 1.489,1.489 0 0 1 1.391,-1 z m 3.5,12 a 1,1 0 0 1 -1,1 H 9.1808095 a 1,1 0 0 1 -1,-1 v -9 h 6.9999995 z"
       id="path304" />
  </g>
  <g
     inkscape:groupmode="layer"
     id="layer1"
     inkscape:label="Layer 1"
     transform="translate(3.1808095,2.005282)" />
  <g
     inkscape:groupmode="layer"
     id="layer2"
     inkscape:label="Layer 2"
     transform="translate(3.1808095,2.005282)" />
</svg>
