<?xml version="1.0" encoding="UTF-8" standalone="no"?>
<svg
   viewBox="0 0 20.008678 20.010565"
   version="1.1"
   id="svg459"
   sodipodi:docname="calendar-arrow-left.svg"
   width="20.008678"
   height="20.010565"
   inkscape:version="1.2.2 (b0a8486541, 2022-12-01)"
   xmlns:inkscape="http://www.inkscape.org/namespaces/inkscape"
   xmlns:sodipodi="http://sodipodi.sourceforge.net/DTD/sodipodi-0.dtd"
   xmlns="http://www.w3.org/2000/svg"
   xmlns:svg="http://www.w3.org/2000/svg">
  <defs
     id="defs463" />
  <sodipodi:namedview
     id="namedview461"
     pagecolor="#ffffff"
     bordercolor="#000000"
     borderopacity="0.25"
     inkscape:showpageshadow="2"
     inkscape:pageopacity="0.0"
     inkscape:pagecheckerboard="0"
     inkscape:deskcolor="#d1d1d1"
     showgrid="false"
     inkscape:zoom="9.5625"
     inkscape:cx="10.248366"
     inkscape:cy="29.751634"
     inkscape:window-width="841"
     inkscape:window-height="865"
     inkscape:window-x="804"
     inkscape:window-y="8"
     inkscape:window-maximized="0"
     inkscape:current-layer="svg459" />
  <rect
     width="19.008854"
     height="19.01074"
     x="0.49991199"
     y="0.49991199"
     fill="#181818"
     stroke="#0c0c0c"
     stroke-linejoin="round"
     stroke-width="0.999824"
     color="#202020"
     rx="2.8384669"
     ry="2.8841498"
     id="rect2" />
  <path
     fill="#e9e9e9"
     d="m 12.242627,15.655627 a 1.1432952,0.94359686 0 0 1 -0.176939,-0.01277 1.1432952,0.94359686 0 0 1 -0.678831,-0.265342 L 5.6737822,10.65953 4.8877672,9.981275 5.6737822,9.3030203 11.386857,4.5864553 a 1.1620099,0.95920523 0 0 1 1.18753,-0.232706 0.56654363,0.4725079 0 0 1 0.777508,0.439872 c 0,0.05818 -0.01531,0.114934 -0.04083,0.168854 a 1.1620099,0.95920523 0 0 1 -0.280719,0.979071 l -4.8930348,4.0397287 4.8930328,4.03973 a 1.1432952,0.94359686 0 0 1 0.289226,1.023058 c 0.01531,0.04257 0.03403,0.0823 0.03403,0.127704 a 0.56824496,0.47392684 0 0 1 -0.762197,0.439873 1.1432952,0.94359686 0 0 1 -0.348773,0.04399 z"
     color="#0c0c0c"
     style="text-indent:0;text-decoration-line:none;text-transform:none;stroke-width:1.55374"
     id="path457" />
</svg>
