<svg viewBox="0 0 24 22">
  <path fill="#181818" d="M3.338 1.994C1.493 1.994 0 3.517 0 5.38v13.24c0 1.862 1.493 3.385 3.338 3.385H16.67c1.845 0 3.338-1.523 3.338-3.385V5.379c0-1.862-1.493-3.385-3.338-3.385H3.338z" color="#555"/>
  <path d="M3.338 1.994C1.493 1.994 0 3.517 0 5.38v13.24c0 1.862 1.493 3.385 3.338 3.385H16.67c1.845 0 3.338-1.523 3.338-3.385V5.379c0-1.862-1.493-3.385-3.338-3.385zm0 1H16.67c1.3 0 2.338 1.051 2.338 2.385V18.62c0 1.334-1.038 2.385-2.338 2.385H3.338C2.038 21.006 1 19.955 1 18.62V5.379c0-1.334 1.038-2.385 2.338-2.385z" color="#0c0c0c" opacity=".5"/>
  <path fill="none" d="M-.2.22h21.944v21.944H-.2z" color="#1c1c1c"/>
  <path fill="#d1d1d1" d="m19.15 3.17-9.56 9.367-2.564-2.563-2.928-.021.015 2.326 4.022 4.022a2.057 2.057 0 0 0 2.91 0l10.95-11.058.002-2.15z" color="#1c1c1c" style="text-indent:0;text-transform:none"/>
</svg>
