<?xml version="1.0" encoding="UTF-8" standalone="no"?>
<svg
   viewBox="0 0 21.997 20.011"
   version="1.1"
   id="svg2518"
   sodipodi:docname="checkbox.svg"
   width="21.997"
   height="20.011"
   inkscape:version="1.2.2 (b0a8486541, 2022-12-01)"
   xmlns:inkscape="http://www.inkscape.org/namespaces/inkscape"
   xmlns:sodipodi="http://sodipodi.sourceforge.net/DTD/sodipodi-0.dtd"
   xmlns="http://www.w3.org/2000/svg"
   xmlns:svg="http://www.w3.org/2000/svg">
  <defs
     id="defs2522" />
  <sodipodi:namedview
     id="namedview2520"
     pagecolor="#ffffff"
     bordercolor="#000000"
     borderopacity="0.25"
     inkscape:showpageshadow="2"
     inkscape:pageopacity="0.0"
     inkscape:pagecheckerboard="0"
     inkscape:deskcolor="#d1d1d1"
     showgrid="false"
     inkscape:zoom="9.8352125"
     inkscape:cx="11.387654"
     inkscape:cy="4.8295855"
     inkscape:window-width="800"
     inkscape:window-height="865"
     inkscape:window-x="804"
     inkscape:window-y="8"
     inkscape:window-maximized="0"
     inkscape:current-layer="svg2518" />
  <path
     fill="#181818"
     d="M 3.338,0 C 1.493,0 0,1.523 0,3.386 v 13.24 c 0,1.862 1.493,3.385 3.338,3.385 H 16.67 c 1.845,0 3.338,-1.523 3.338,-3.385 V 3.385 C 20.008,1.523 18.515,0 16.67,0 H 3.338 Z"
     color="#555555"
     id="path2510" />
  <path
     d="M 3.338,0 C 1.493,0 0,1.523 0,3.386 v 13.24 c 0,1.862 1.493,3.385 3.338,3.385 H 16.67 c 1.845,0 3.338,-1.523 3.338,-3.385 V 3.385 C 20.008,1.523 18.515,0 16.67,0 Z m 0,1 H 16.67 c 1.3,0 2.338,1.051 2.338,2.385 v 13.241 c 0,1.334 -1.038,2.385 -2.338,2.385 H 3.338 C 2.038,19.012 1,17.961 1,16.626 V 3.385 C 1,2.051 2.038,1 3.338,1 Z"
     color="#0c0c0c"
     opacity="0.5"
     id="path2512" />
  <path
     fill="none"
     d="M -0.2,-1.774 H 21.744 V 20.17 H -0.2 Z"
     color="#1c1c1c"
     id="path2514" />
  <path
     fill="#d1d1d1"
     d="M 19.15,1.176 9.59,10.543 7.026,7.98 4.098,7.959 l 0.015,2.326 4.022,4.022 a 2.057,2.057 0 0 0 2.91,0 l 10.95,-11.058 0.002,-2.15 z"
     color="#1c1c1c"
     style="text-indent:0;text-transform:none;fill:#e9e9e9;fill-opacity:1"
     id="path2516" />
</svg>
