<?xml version="1.0" encoding="UTF-8" standalone="no"?>
<svg
   width="20.453"
   height="19.417"
   viewBox="0 0 5.412 5.137"
   version="1.1"
   id="svg5235"
   sodipodi:docname="color-pick.svg"
   inkscape:version="1.2.2 (b0a8486541, 2022-12-01)"
   xmlns:inkscape="http://www.inkscape.org/namespaces/inkscape"
   xmlns:sodipodi="http://sodipodi.sourceforge.net/DTD/sodipodi-0.dtd"
   xmlns="http://www.w3.org/2000/svg"
   xmlns:svg="http://www.w3.org/2000/svg">
  <sodipodi:namedview
     id="namedview5237"
     pagecolor="#ffffff"
     bordercolor="#000000"
     borderopacity="0.25"
     inkscape:showpageshadow="2"
     inkscape:pageopacity="0.0"
     inkscape:pagecheckerboard="0"
     inkscape:deskcolor="#d1d1d1"
     showgrid="false"
     inkscape:zoom="11.143569"
     inkscape:cx="13.281203"
     inkscape:cy="10.633936"
     inkscape:window-width="800"
     inkscape:window-height="865"
     inkscape:window-x="804"
     inkscape:window-y="8"
     inkscape:window-maximized="0"
     inkscape:current-layer="g5233" />
  <defs
     id="defs5225">
    <filter
       id="color-pick_svg__a"
       width="1.2318595"
       height="1.2318595"
       x="-0.11592973"
       y="-0.11592973"
       color-interpolation-filters="sRGB">
      <feGaussianBlur
         stdDeviation=".611"
         id="feGaussianBlur5222" />
    </filter>
    <filter
       inkscape:collect="always"
       style="color-interpolation-filters:sRGB"
       id="filter7215"
       x="-0.037446144"
       y="-0.037469788"
       width="1.0747745"
       height="1.0749396">
      <feGaussianBlur
         inkscape:collect="always"
         stdDeviation="0.015068503"
         id="feGaussianBlur7217" />
    </filter>
  </defs>
  <g
     color="#181818"
     transform="translate(-103.128 -146.265)"
     id="g5233">
    <circle
       cx="10.227"
       cy="9.826"
       r="8.481"
       stroke="#181818"
       stroke-miterlimit="10"
       filter="url(#color-pick_svg__a)"
       opacity=".6"
       overflow="visible"
       style="marker:none"
       transform="translate(103.128 146.265) scale(.26458)"
       id="circle5227" />
    <path
       stroke="#e9e9e9"
       stroke-miterlimit="10"
       stroke-width=".264"
       d="M108.077 148.641a2.244 2.244 0 0 1-2.244 2.244 2.254 2.254 0 0 1-2.252-2.244l-.009-2.244h2.261a2.244 2.244 0 0 1 2.244 2.244z"
       overflow="visible"
       style="marker:none;stroke:#e9e9e9;stroke-opacity:1;filter:url(#filter7215)"
       id="path5229" />
    <ellipse
       cx="105.82182"
       cy="148.67963"
       fill="#50dbb5"
       overflow="visible"
       style="stroke-width:0.432449;stroke-dasharray:none;marker:none"
       id="circle5231"
       rx="1.6989263"
       ry="1.6891291" />
    <path
       style="fill:#252525;stroke:#2d2d2d;stroke-width:1.339;stroke-linecap:round;stroke-linejoin:round;stroke-opacity:1;fill-opacity:1;stroke-dasharray:none;paint-order:markers stroke fill"
       d="M 9.3435688,16.856065 C 8.9300017,16.813882 8.2233161,16.656175 7.7731563,16.505605 5.1404558,15.625019 3.2517906,13.612484 2.4901365,10.876091 2.3075358,10.220062 2.2961775,9.955738 2.26475,5.6310506 L 2.2316546,1.0768543 h 4.4517031 c 4.9470663,0 5.2397513,0.026065 6.5366923,0.5821149 1.143327,0.4901895 1.673175,0.850716 2.57367,1.7512118 1.193043,1.1930423 1.89203,2.4712908 2.204538,4.0314737 0.20102,1.0035807 0.13795,2.7276373 -0.13425,3.6697763 -1.074869,3.720335 -4.661158,6.138276 -8.5204392,5.744634 z m 2.5547772,-1.061314 c 0.390403,-0.09822 1.093452,-0.36724 1.562333,-0.597815 0.729686,-0.358829 0.97589,-0.543192 1.708887,-1.279653 1.344812,-1.351168 1.946033,-2.69336 2.035585,-4.5443229 C 17.357798,6.2178124 15.571358,3.4780814 12.676416,2.4275761 10.859668,1.7683218 8.9858728,1.8463921 7.2767311,2.6525502 5.4656176,3.5068058 4.2247269,4.9049774 3.5879979,6.8088245 2.3110221,10.627038 4.595299,14.78279 8.5250965,15.790817 c 0.9376169,0.240508 2.4260545,0.242243 3.3732495,0.0039 z"
       id="path5829"
       transform="matrix(0.26460667,0,0,0.26460667,103.128,146.26457)" />
  </g>
</svg>
