<?xml version="1.0" encoding="UTF-8" standalone="no"?>
<svg
   viewBox="0 0 20.008678 20.010565"
   version="1.1"
   id="svg2995"
   sodipodi:docname="eye-not-looking-symbolic.svg"
   width="20.008678"
   height="20.010565"
   inkscape:version="1.2.2 (b0a8486541, 2022-12-01)"
   xmlns:inkscape="http://www.inkscape.org/namespaces/inkscape"
   xmlns:sodipodi="http://sodipodi.sourceforge.net/DTD/sodipodi-0.dtd"
   xmlns="http://www.w3.org/2000/svg"
   xmlns:svg="http://www.w3.org/2000/svg">
  <defs
     id="defs2999" />
  <sodipodi:namedview
     id="namedview2997"
     pagecolor="#ffffff"
     bordercolor="#000000"
     borderopacity="0.25"
     inkscape:showpageshadow="2"
     inkscape:pageopacity="0.0"
     inkscape:pagecheckerboard="0"
     inkscape:deskcolor="#d1d1d1"
     showgrid="false"
     inkscape:zoom="6.7617086"
     inkscape:cx="5.0283149"
     inkscape:cy="6.8769601"
     inkscape:window-width="842"
     inkscape:window-height="865"
     inkscape:window-x="804"
     inkscape:window-y="8"
     inkscape:window-maximized="0"
     inkscape:current-layer="svg2995" />
  <rect
     width="19.008854"
     height="19.01074"
     x="0.49991199"
     y="0.49991199"
     fill="#181818"
     stroke="#0c0c0c"
     stroke-linejoin="round"
     stroke-width="0.999824"
     color="#202020"
     rx="2.8384669"
     ry="2.8841498"
     id="rect2866" />
  <path
     fill="#818181"
     d="m 15.783701,3.8827943 a 1,1 0 0 0 -0.687,0.303 l -0.984,0.984 a 8,8 0 0 0 -4.3089995,-1.277 8,8 0 0 0 -7.738,6.01 8,8 0 0 0 2.943,4.3699997 l -0.912,0.913 a 1,1 0 1 0 1.414,1.414 L 16.510701,5.5997943 a 1,1 0 0 0 -0.727,-1.717 z m -5.9799995,2.01 a 4,4 0 0 1 2.6109995,0.974 l -1.419999,1.42 a 2,2 0 0 0 -1.1910005,-0.394 2,2 0 0 0 -2,2 2,2 0 0 0 0.396,1.1899997 l -1.42,1.42 a 4,4 0 0 1 -0.976,-2.6099997 4,4 0 0 1 4,-4 z m 7.0299995,2.209 -3.344,3.3429997 a 4,4 0 0 1 -2.127,2.127 l -2.2799995,2.28 a 8,8 0 0 0 0.721,0.04 8,8 0 0 0 7.7379995,-6.0099997 8,8 0 0 0 -0.709,-1.78 z m -7.5299995,0.79 a 0.5,0.5 0 0 1 0.5,0.5 0.5,0.5 0 0 1 -0.5,0.5 0.5,0.5 0 0 1 -0.5,-0.5 0.5,0.5 0 0 1 0.5,-0.5 z"
     id="path2993"
     style="fill:#e9e9e9;fill-opacity:1" />
</svg>
