<?xml version="1.0" encoding="UTF-8" standalone="no"?>
<svg
   viewBox="0 0 20.008678 20.010565"
   version="1.1"
   id="svg3517"
   sodipodi:docname="eye-open-negative-filled-symbolic.svg"
   width="20.008678"
   height="20.010565"
   inkscape:version="1.2.2 (b0a8486541, 2022-12-01)"
   xmlns:inkscape="http://www.inkscape.org/namespaces/inkscape"
   xmlns:sodipodi="http://sodipodi.sourceforge.net/DTD/sodipodi-0.dtd"
   xmlns="http://www.w3.org/2000/svg"
   xmlns:svg="http://www.w3.org/2000/svg">
  <defs
     id="defs3521" />
  <sodipodi:namedview
     id="namedview3519"
     pagecolor="#ffffff"
     bordercolor="#000000"
     borderopacity="0.25"
     inkscape:showpageshadow="2"
     inkscape:pageopacity="0.0"
     inkscape:pagecheckerboard="0"
     inkscape:deskcolor="#d1d1d1"
     showgrid="false"
     inkscape:zoom="9.5625"
     inkscape:cx="10.248366"
     inkscape:cy="19.294118"
     inkscape:window-width="841"
     inkscape:window-height="865"
     inkscape:window-x="804"
     inkscape:window-y="8"
     inkscape:window-maximized="0"
     inkscape:current-layer="svg3517" />
  <rect
     width="19.008854"
     height="19.01074"
     x="0.49991199"
     y="0.49991199"
     fill="#181818"
     stroke="#0c0c0c"
     stroke-linejoin="round"
     stroke-width="0.999824"
     color="#202020"
     rx="2.8384669"
     ry="2.8841498"
     id="rect2866" />
  <path
     fill="#818181"
     d="m 10.108301,4.0409644 a 8,8 0 0 0 -7.7379998,6.0099996 8,8 0 0 0 7.7379998,5.99 8,8 0 0 0 7.738001,-6.01 8,8 0 0 0 -7.738001,-5.9899996 z m 0,2 a 4,4 0 0 1 4.000001,3.9999996 4,4 0 0 1 -4.000001,4 4,4 0 0 1 -3.9999998,-4 4,4 0 0 1 3.9999998,-3.9999996 z"
     id="path3513"
     style="fill:#e9e9e9;fill-opacity:1" />
  <path
     fill="#818181"
     d="m 12.108302,10.040964 a 2,2 0 0 1 -2.000001,2 2,2 0 0 1 -1.9999998,-2 2,2 0 0 1 1.9999998,-1.9999996 2,2 0 0 1 2.000001,1.9999996 z"
     id="path3515"
     style="fill:#e9e9e9;fill-opacity:1" />
</svg>
