<?xml version="1.0" encoding="UTF-8" standalone="no"?>
<svg
   viewBox="0 0 20 20"
   version="1.1"
   id="svg9271"
   sodipodi:docname="pointer-drag-symbolic.svg"
   inkscape:version="1.2.2 (b0a8486541, 2022-12-01)"
   xmlns:inkscape="http://www.inkscape.org/namespaces/inkscape"
   xmlns:sodipodi="http://sodipodi.sourceforge.net/DTD/sodipodi-0.dtd"
   xmlns="http://www.w3.org/2000/svg"
   xmlns:svg="http://www.w3.org/2000/svg">
  <defs
     id="defs9275" />
  <sodipodi:namedview
     id="namedview9273"
     pagecolor="#ffffff"
     bordercolor="#000000"
     borderopacity="0.25"
     inkscape:showpageshadow="2"
     inkscape:pageopacity="0.0"
     inkscape:pagecheckerboard="0"
     inkscape:deskcolor="#d1d1d1"
     showgrid="false"
     inkscape:zoom="30.6"
     inkscape:cx="10"
     inkscape:cy="10.01634"
     inkscape:window-width="796"
     inkscape:window-height="865"
     inkscape:window-x="804"
     inkscape:window-y="8"
     inkscape:window-maximized="0"
     inkscape:current-layer="svg9271" />
  <path
     fill="#464646"
     d="M10.705 1.672c-.837.075-1.818-.137-2.447.576-.18.503-.391.73-.946.617-.793-.05-1.702.054-2.187.774-.555.83-.314 1.856-.367 2.793v1.502c-.51-.318-1.132-.132-1.7-.182a6.667 6.667 0 0 0-1.318.092c.057 2.686.074 5.373.121 8.058.094 1.303 1.232 2.405 2.545 2.424.633.015 1.482.007 2.225.012 3.221-.012 6.446.05 9.666-.057 1.162-.12 2.213-1.188 2.07-2.396v-9.48c-.707-.941-1.815-1.782-3.059-1.571-.3-.454-.486-1.473-1.226-1.799-.355-.29-.84-.11-1.26-.162-.297-.073-.856.193-.87-.252-.157-.521-.714-.908-1.247-.949zM10.6 3.176c.164.271.182.754.218 1.125.007.007.02.006.028.012h-.028l.494 5.9.664-5.842 1.346.004c.536.39.413 1.14.555 1.723-.011.067.006.096.015.136h-.001l.011.086.483 3.866.664-3.92c.574-.037 1.157.038 1.558.502.41.217.216.689.26 1.058v8.342c-.337.964-1.6.548-2.375.66-3.37.013-6.742.034-10.11-.013-.977-.029-1.143-1.07-1.042-1.842a501.835 501.835 0 0 0-.078-5.721c.326.006.676-.013.988.01.494.915.485 2.001.508 3.015.493-.006 1.043.04 1.5 0 .01-2.52-.018-5.04.014-7.558.105-.52.73-.31 1.111-.354h.676l.488 5.848.67-5.877h-.004c.031-.383-.15-.896.248-1.12l1.139-.04z"
     color="#000"
     display="block"
     style="shape-padding:0;solid-color:#000;fill:#e9e9e9;fill-opacity:1"
     id="path9269" />
</svg>
