<?xml version="1.0" encoding="UTF-8" standalone="no"?>
<svg
   viewBox="0 0 20 20"
   version="1.1"
   id="svg8779"
   sodipodi:docname="pointer-double-click-symbolic.svg"
   inkscape:version="1.2.2 (b0a8486541, 2022-12-01)"
   xmlns:inkscape="http://www.inkscape.org/namespaces/inkscape"
   xmlns:sodipodi="http://sodipodi.sourceforge.net/DTD/sodipodi-0.dtd"
   xmlns="http://www.w3.org/2000/svg"
   xmlns:svg="http://www.w3.org/2000/svg">
  <defs
     id="defs8783" />
  <sodipodi:namedview
     id="namedview8781"
     pagecolor="#ffffff"
     bordercolor="#000000"
     borderopacity="0.25"
     inkscape:showpageshadow="2"
     inkscape:pageopacity="0.0"
     inkscape:pagecheckerboard="0"
     inkscape:deskcolor="#d1d1d1"
     showgrid="false"
     inkscape:zoom="30.6"
     inkscape:cx="10"
     inkscape:cy="10.01634"
     inkscape:window-width="796"
     inkscape:window-height="865"
     inkscape:window-x="804"
     inkscape:window-y="8"
     inkscape:window-maximized="0"
     inkscape:current-layer="svg8779" />
  <path
     fill="#464646"
     d="M 0.92110945,-0.295 V 19.79 L 5.1651095,15.646 c 0.588,1.188 1.158,2.386 1.759,3.569 1.108,1.64 4.1569995,0.465 3.8979995,-1.496 0.01,-0.47 -0.406,-0.909 -0.435,-1.314 l 0.778,-0.76 c 0.588,1.19 1.159,2.387 1.759,3.57 1.108,1.64 4.157,0.465 3.898,-1.496 -0.193,-0.905 -0.718,-1.698 -1.069,-2.55 l -0.717,-1.537 h 5.268 L 6.9211095,-0.295 v 6.244 z m 1.50000005,3.727 6,6.244 V 3.432 l 8.3599995,8.699 h -4.1 c 0.883,1.903 1.782,3.8 2.656,5.708 0.006,0.622 -1.228,0.98 -1.325,0.207 l -2.413,-4.921 -3.0599995,2.986 c 0.263,0.608 0.596,1.193 0.814,1.816 -0.183,0.601 -1.268,0.838 -1.366,0.068 l -2.388,-4.87 -3.178,3.102 z"
     color="#000000"
     display="block"
     style="shape-padding:0;solid-color:#000000;fill:#e9e9e9;fill-opacity:1"
     id="path8777" />
</svg>
